# xmcd CD database file
#
# Track frame offsets:
#	150
#	10840
#	20946
#	37010
#	51189
#	70062
#	83955
#	94739
#	110977
#	126391
#
# Disc length: 1886 seconds
#
# Revision: 0
# Processed by: cddbd v1.5.1PL2 Copyright (c) Steve Scherf et al.
# Submitted via: CDex 1.51
#
DISCID=8e075c0a
DTITLE=The Mustangs  - Don't Hang Up
DYEAR=2002
DGENRE=Blues
TTITLE0=Phone Booth
TTITLE1=Hands Off
TTITLE2=Roadhouse Blues
TTITLE3=Walking By Myself
TTITLE4=Tonight's The Night
TTITLE5=Mystery Train
TTITLE6=Heartbreak Hotel
TTITLE7=I Wish You Would
TTITLE8=Maggie M'Gill
TTITLE9=Dust My Broom
EXTD=YEAR: 2002
EXTT0=
EXTT1=
EXTT2=
EXTT3=
EXTT4=
EXTT5=
EXTT6=
EXTT7=
EXTT8=
EXTT9=
PLAYORDER=
